<svg id="ejVEaJPGN1f1" xmlns="http://www.w3.org/2000/svg" xmlns:xlink="http://www.w3.org/1999/xlink" viewBox="10.5 8.7 484 484" shape-rendering="geometricPrecision" text-rendering="geometricPrecision" project-id="7f8c614dc3504dd4acc40769e96f80f4" export-id="6742386a8f984b15a8ba05594e2d0b0e" cached="false"><g><path d="M494.501,419.108c0,40.617-32.928,73.545-73.548,73.545h-336.891c-40.619,0-73.543-32.928-73.543-73.545v-336.893c0-40.619,32.925-73.545,73.543-73.545h336.892c40.62,0,73.548,32.926,73.548,73.545v336.893h-.001Z" fill="#e4e0e0"/></g><g><circle r="36.155" transform="translate(165.74 181.342)" fill="#271d4f"/><path d="M134.572,244.152h62.113v199.817h-62.113v-199.817Z" fill="#271d4f"/><path d="M235.75,244.152h59.12v199.817h-59.12v-199.817Z" fill="#271d4f"/><path d="M238.306,350.54h59.117v93.429h-59.117v-93.429Z" fill="#271d4f"/><path d="M297.423,350.54c0,0-.924-25.917,5.911-39.392c0,0,6.836-16.595,28.321-16.695c0,0,25.197-4.399,32.423,20.603c0,0,2.735,13.866,2.735,19.728s.196,109.186.196,109.186h61.916v-114.459c0,0,4.494-64.654-34.312-82.365c0,0-63.807-28.646-98.439,23.962c0,0-7.554,5.206-8.597-9.378s-9.896,22.398-10.157,23.181c-.261.781,10.157,73.702,10.157,73.702l9.846-8.073Z" fill="#271d4f"/></g></svg>
